<?xml version="1.0" encoding="UTF-8"?>
<svg xmlns="http://www.w3.org/2000/svg" width="1570" height="1000" viewBox="0 0 1570 1000" role="img" aria-labelledby="guide-incumbent-advantage-title guide-incumbent-advantage-desc">
  <title id="guide-incumbent-advantage-title">Incumbent Advantage</title>
  <desc id="guide-incumbent-advantage-desc">Civant editorial procurement intelligence graphic for Incumbent Advantage.</desc>
  
  <defs>
    <radialGradient id="guide-incumbent-advantage-glow" cx="50%" cy="45%" r="62%">
      <stop offset="0%" stop-color="#00c4c4" stop-opacity="0.23"/>
      <stop offset="48%" stop-color="#0a1628" stop-opacity="0.72"/>
      <stop offset="100%" stop-color="#060d18" stop-opacity="1"/>
    </radialGradient>
    <linearGradient id="guide-incumbent-advantage-panel" x1="0" y1="0" x2="1" y2="1">
      <stop offset="0%" stop-color="#11304a" stop-opacity="0.72"/>
      <stop offset="100%" stop-color="#111827" stop-opacity="0.56"/>
    </linearGradient>
    <linearGradient id="guide-incumbent-advantage-accent" x1="0" y1="0" x2="1" y2="0">
      <stop offset="0%" stop-color="#00c4c4" stop-opacity="0.15"/>
      <stop offset="45%" stop-color="#00c4c4" stop-opacity="1"/>
      <stop offset="100%" stop-color="#6ee7b7" stop-opacity="0.28"/>
    </linearGradient>
    <filter id="guide-incumbent-advantage-soft-glow" x="-40%" y="-40%" width="180%" height="180%">
      <feGaussianBlur stdDeviation="6" result="blur"/>
      <feMerge>
        <feMergeNode in="blur"/>
        <feMergeNode in="SourceGraphic"/>
      </feMerge>
    </filter>
    <pattern id="guide-incumbent-advantage-grid" width="58" height="58" patternUnits="userSpaceOnUse">
      <path d="M 58 0 L 0 0 0 58" fill="none" stroke="#ffffff" stroke-opacity="0.055" stroke-width="1"/>
    </pattern>
    <pattern id="guide-incumbent-advantage-dots" width="34" height="34" patternUnits="userSpaceOnUse">
      <circle cx="2" cy="2" r="1.4" fill="#00c4c4" fill-opacity="0.28"/>
    </pattern>
  </defs>
  <rect width="1570" height="1000" fill="#08111f"/>
  <rect width="1570" height="1000" fill="url(#guide-incumbent-advantage-glow)"/>
  <rect width="1570" height="1000" fill="url(#guide-incumbent-advantage-grid)" opacity="0.58"/>
  <path d="M-80 690 C 220 540, 342 770, 610 612 S 1090 505, 1650 340" fill="none" stroke="#00c4c4" stroke-opacity="0.14" stroke-width="2"/>
  <path d="M-60 760 C 260 575, 410 775, 720 630 S 1110 665, 1630 475" fill="none" stroke="#6ee7b7" stroke-opacity="0.1" stroke-width="2"/>
  <path d="M-60 335 C 270 520, 510 235, 780 400 S 1180 545, 1640 285" fill="none" stroke="#00c4c4" stroke-opacity="0.1" stroke-width="2"/>
  
  <g font-family="Montserrat, Inter, Arial, sans-serif">
    <text x="70" y="86" fill="#00c4c4" font-size="24" font-weight="800" letter-spacing="9">COMPETITIVE POSITIONING</text>
    <text x="70" y="148" fill="#f8fafc" font-size="54" font-weight="800" letter-spacing="-1">Incumbent Advantage</text>
    <line x1="70" y1="188" x2="1500" y2="188" stroke="#00c4c4" stroke-opacity="0.35"/>
    
    <rect x="92" y="242" width="1008" height="638" rx="30" fill="#071321" fill-opacity="0.55" stroke="#00c4c4" stroke-opacity="0.3"/>
    <line x1="190" y1="792" x2="1018" y2="792" stroke="#00c4c4" stroke-opacity="0.75" stroke-width="3"/>
    <line x1="190" y1="792" x2="190" y2="330" stroke="#00c4c4" stroke-opacity="0.75" stroke-width="3"/>
    <text x="615" y="836" fill="#00c4c4" font-size="22" font-weight="900" text-anchor="middle">Earlier preparation</text>
    <text x="125" y="555" fill="#00c4c4" font-size="21" font-weight="900" text-anchor="middle" transform="rotate(-90 125 555)">Buyer confidence</text>
    <rect x="650" y="318" width="345" height="245" rx="30" fill="#00c4c4" fill-opacity="0.1" stroke="#00c4c4" stroke-dasharray="14 12" stroke-opacity="0.75"/>
    <text x="822" y="365" fill="#00c4c4" font-size="24" font-weight="900" text-anchor="middle">Challenger window</text>
    
      <g>
        <circle cx="340" cy="652" r="70" fill="#f59e0b" fill-opacity="0.72" stroke="#f59e0b" stroke-width="3"/>
        <text x="440" y="626" fill="#f8fafc" font-size="24" font-weight="900" text-anchor="start"><tspan x="440" dy="0">Incumbent</tspan></text>
        <text x="440" y="660" fill="#aeb9ca" font-size="18" font-weight="650" text-anchor="start"><tspan x="440" dy="0">context + relationships</tspan></text>
      </g>
      <g>
        <circle cx="675" cy="715" r="42" fill="#94a3b8" fill-opacity="0.72" stroke="#94a3b8" stroke-width="3"/>
        <text x="745" y="690" fill="#f8fafc" font-size="24" font-weight="900" text-anchor="start"><tspan x="745" dy="0">Late challenger</tspan></text>
        <text x="745" y="724" fill="#aeb9ca" font-size="18" font-weight="650" text-anchor="start"><tspan x="745" dy="0">notice-led response</tspan></text>
      </g>
      <g>
        <circle cx="770" cy="455" r="56" fill="#00c4c4" fill-opacity="0.72" stroke="#00c4c4" stroke-width="3"/>
        <text x="850" y="430" fill="#f8fafc" font-size="24" font-weight="900" text-anchor="start"><tspan x="850" dy="0">Prepared</tspan><tspan x="850" dy="27">challenger</tspan></text>
        <text x="850" y="488" fill="#aeb9ca" font-size="18" font-weight="650" text-anchor="start"><tspan x="850" dy="0">early evidence</tspan></text>
      </g>
    <rect x="1142" y="288" width="336" height="448" rx="28" fill="#0b1d31" fill-opacity="0.74" stroke="#cbd5e1" stroke-opacity="0.26"/>
    <text x="1180" y="352" fill="#00c4c4" font-size="29" font-weight="900">Civant view</text>
    <text x="1180" y="412" fill="#f8fafc" font-size="22" font-weight="850" text-anchor="start"><tspan x="1180" dy="0">Renewal timing</tspan><tspan x="1180" dy="50">Switching proof</tspan><tspan x="1180" dy="50">Buyer context</tspan></text>
    <text x="1180" y="610" fill="#aeb9ca" font-size="18" font-weight="650" text-anchor="start"><tspan x="1180" dy="0">Use evidence to choose where</tspan><tspan x="1180" dy="25">to compete.</tspan></text>
    
  </g>
</svg>
