<?xml version="1.0" encoding="UTF-8"?>
<svg xmlns="http://www.w3.org/2000/svg" width="1570" height="1000" viewBox="0 0 1570 1000" role="img" aria-labelledby="guide-framework-competition-title guide-framework-competition-desc">
  <title id="guide-framework-competition-title">Framework Competition</title>
  <desc id="guide-framework-competition-desc">Civant editorial procurement intelligence graphic for Framework Competition.</desc>
  
  <defs>
    <radialGradient id="guide-framework-competition-glow" cx="50%" cy="45%" r="62%">
      <stop offset="0%" stop-color="#00c4c4" stop-opacity="0.23"/>
      <stop offset="48%" stop-color="#0a1628" stop-opacity="0.72"/>
      <stop offset="100%" stop-color="#060d18" stop-opacity="1"/>
    </radialGradient>
    <linearGradient id="guide-framework-competition-panel" x1="0" y1="0" x2="1" y2="1">
      <stop offset="0%" stop-color="#11304a" stop-opacity="0.72"/>
      <stop offset="100%" stop-color="#111827" stop-opacity="0.56"/>
    </linearGradient>
    <linearGradient id="guide-framework-competition-accent" x1="0" y1="0" x2="1" y2="0">
      <stop offset="0%" stop-color="#00c4c4" stop-opacity="0.15"/>
      <stop offset="45%" stop-color="#00c4c4" stop-opacity="1"/>
      <stop offset="100%" stop-color="#6ee7b7" stop-opacity="0.28"/>
    </linearGradient>
    <filter id="guide-framework-competition-soft-glow" x="-40%" y="-40%" width="180%" height="180%">
      <feGaussianBlur stdDeviation="6" result="blur"/>
      <feMerge>
        <feMergeNode in="blur"/>
        <feMergeNode in="SourceGraphic"/>
      </feMerge>
    </filter>
    <pattern id="guide-framework-competition-grid" width="58" height="58" patternUnits="userSpaceOnUse">
      <path d="M 58 0 L 0 0 0 58" fill="none" stroke="#ffffff" stroke-opacity="0.055" stroke-width="1"/>
    </pattern>
    <pattern id="guide-framework-competition-dots" width="34" height="34" patternUnits="userSpaceOnUse">
      <circle cx="2" cy="2" r="1.4" fill="#00c4c4" fill-opacity="0.28"/>
    </pattern>
  </defs>
  <rect width="1570" height="1000" fill="#08111f"/>
  <rect width="1570" height="1000" fill="url(#guide-framework-competition-glow)"/>
  <rect width="1570" height="1000" fill="url(#guide-framework-competition-grid)" opacity="0.58"/>
  <path d="M-80 690 C 220 540, 342 770, 610 612 S 1090 505, 1650 340" fill="none" stroke="#00c4c4" stroke-opacity="0.14" stroke-width="2"/>
  <path d="M-60 760 C 260 575, 410 775, 720 630 S 1110 665, 1630 475" fill="none" stroke="#6ee7b7" stroke-opacity="0.1" stroke-width="2"/>
  <path d="M-60 335 C 270 520, 510 235, 780 400 S 1180 545, 1640 285" fill="none" stroke="#00c4c4" stroke-opacity="0.1" stroke-width="2"/>
  
  <g font-family="Montserrat, Inter, Arial, sans-serif">
    <text x="70" y="86" fill="#00c4c4" font-size="24" font-weight="800" letter-spacing="9">ACCESS WINDOWS</text>
    <text x="70" y="148" fill="#f8fafc" font-size="54" font-weight="800" letter-spacing="-1">Framework Competition</text>
    <line x1="70" y1="188" x2="1500" y2="188" stroke="#00c4c4" stroke-opacity="0.35"/>
    
    <rect x="88" y="250" width="1394" height="456" rx="32" fill="#071321" fill-opacity="0.54" stroke="#00c4c4" stroke-opacity="0.25"/>
    <rect x="112" y="272" width="570" height="54" rx="18" fill="#00c4c4" fill-opacity="0.12" stroke="#00c4c4" stroke-opacity="0.3"/>
    <rect x="888" y="272" width="570" height="54" rx="18" fill="#cbd5e1" fill-opacity="0.07" stroke="#cbd5e1" stroke-opacity="0.22"/>
    <text x="397" y="307" fill="#00c4c4" font-size="21" font-weight="900" text-anchor="middle">Civant advantage</text>
    <text x="1173" y="307" fill="#dbeafe" font-size="21" font-weight="800" text-anchor="middle">Market awareness</text>
    <line x1="190" y1="408" x2="1380" y2="408" stroke="url(#guide-framework-competition-accent)" stroke-width="5"/>
    <rect x="114" y="594" width="1342" height="84" rx="22" fill="url(#guide-framework-competition-dots)" opacity="0.35"/>
    
        <g>
          <rect x="116" y="340" width="148" height="258" rx="22" fill="#06222f" fill-opacity="0.58" stroke="#00c4c4" stroke-opacity="0.42"/>
          <circle cx="190" cy="408" r="37" fill="#0b1d31" stroke="#00c4c4" stroke-opacity="0.95" stroke-width="3"/>
          <circle cx="190" cy="408" r="10" fill="#00c4c4" filter="url(#guide-framework-competition-soft-glow)"/>
          <text x="190" y="492" fill="#72f7f6" font-size="20" font-weight="900" text-anchor="middle"><tspan x="190" dy="0">Open</tspan></text>
          <text x="190" y="554" fill="#aeb9ca" font-size="15" font-weight="600" text-anchor="middle">Panel formed</text>
        </g>
        <g>
          <rect x="413.5" y="340" width="148" height="258" rx="22" fill="#06222f" fill-opacity="0.58" stroke="#00c4c4" stroke-opacity="0.42"/>
          <circle cx="487.5" cy="408" r="37" fill="#0b1d31" stroke="#00c4c4" stroke-opacity="0.95" stroke-width="3"/>
          <circle cx="487.5" cy="408" r="10" fill="#00c4c4" filter="url(#guide-framework-competition-soft-glow)"/>
          <text x="487.5" y="492" fill="#72f7f6" font-size="20" font-weight="900" text-anchor="middle"><tspan x="487.5" dy="0">Award</tspan></text>
          <text x="487.5" y="554" fill="#aeb9ca" font-size="15" font-weight="600" text-anchor="middle">Suppliers set</text>
        </g>
        <g>
          <rect x="711" y="340" width="148" height="258" rx="22" fill="#111827" fill-opacity="0.5" stroke="#cbd5e1" stroke-opacity="0.28"/>
          <circle cx="785" cy="408" r="37" fill="#0b1d31" stroke="#cbd5e1" stroke-opacity="0.64" stroke-width="3"/>
          <circle cx="785" cy="408" r="10" fill="#cbd5e1" filter="url(#guide-framework-competition-soft-glow)"/>
          <text x="785" y="492" fill="#e5e7eb" font-size="20" font-weight="900" text-anchor="middle"><tspan x="785" dy="0">Call-offs</tspan></text>
          <text x="785" y="554" fill="#aeb9ca" font-size="15" font-weight="600" text-anchor="middle">Closed access</text>
        </g>
        <g>
          <rect x="1008.5" y="340" width="148" height="258" rx="22" fill="#111827" fill-opacity="0.5" stroke="#cbd5e1" stroke-opacity="0.28"/>
          <circle cx="1082.5" cy="408" r="37" fill="#0b1d31" stroke="#cbd5e1" stroke-opacity="0.64" stroke-width="3"/>
          <circle cx="1082.5" cy="408" r="10" fill="#cbd5e1" filter="url(#guide-framework-competition-soft-glow)"/>
          <text x="1082.5" y="492" fill="#e5e7eb" font-size="20" font-weight="900" text-anchor="middle"><tspan x="1082.5" dy="0">Review</tspan></text>
          <text x="1082.5" y="554" fill="#aeb9ca" font-size="15" font-weight="600" text-anchor="middle">Needs change</text>
        </g>
        <g>
          <rect x="1306" y="340" width="148" height="258" rx="22" fill="#111827" fill-opacity="0.5" stroke="#cbd5e1" stroke-opacity="0.28"/>
          <circle cx="1380" cy="408" r="37" fill="#0b1d31" stroke="#cbd5e1" stroke-opacity="0.64" stroke-width="3"/>
          <circle cx="1380" cy="408" r="10" fill="#cbd5e1" filter="url(#guide-framework-competition-soft-glow)"/>
          <text x="1380" y="492" fill="#e5e7eb" font-size="20" font-weight="900" text-anchor="middle"><tspan x="1380" dy="0">Renewal</tspan></text>
          <text x="1380" y="554" fill="#aeb9ca" font-size="15" font-weight="600" text-anchor="middle">Market reopens</text>
        </g>
    <rect x="185" y="768" width="545" height="104" rx="22" fill="#06222f" fill-opacity="0.72" stroke="#00c4c4" stroke-opacity="0.7"/>
    <text x="215" y="820" fill="#00c4c4" font-size="24" font-weight="900">Panel access</text>
    <text x="215" y="862" fill="#dbeafe" font-size="18" font-weight="650" text-anchor="start"><tspan x="215" dy="0">Framework win controls future call-offs.</tspan></text>
    <rect x="840" y="768" width="545" height="104" rx="22" fill="#111827" fill-opacity="0.72" stroke="#cbd5e1" stroke-opacity="0.4"/>
    <text x="870" y="820" fill="#e5e7eb" font-size="24" font-weight="900">Closed period</text>
    <text x="870" y="862" fill="#aeb9ca" font-size="18" font-weight="650" text-anchor="start"><tspan x="870" dy="0">Non-panel suppliers wait for renewal.</tspan></text>
    
  </g>
</svg>
