<?xml version="1.0" encoding="UTF-8"?>
<svg xmlns="http://www.w3.org/2000/svg" width="1570" height="1000" viewBox="0 0 1570 1000" role="img" aria-labelledby="guide-intelligence-function-title guide-intelligence-function-desc">
  <title id="guide-intelligence-function-title">Building a Procurement Intelligence Function</title>
  <desc id="guide-intelligence-function-desc">Civant editorial procurement intelligence graphic for Building a Procurement Intelligence Function.</desc>
  
  <defs>
    <radialGradient id="guide-intelligence-function-glow" cx="50%" cy="45%" r="62%">
      <stop offset="0%" stop-color="#00c4c4" stop-opacity="0.23"/>
      <stop offset="48%" stop-color="#0a1628" stop-opacity="0.72"/>
      <stop offset="100%" stop-color="#060d18" stop-opacity="1"/>
    </radialGradient>
    <linearGradient id="guide-intelligence-function-panel" x1="0" y1="0" x2="1" y2="1">
      <stop offset="0%" stop-color="#11304a" stop-opacity="0.72"/>
      <stop offset="100%" stop-color="#111827" stop-opacity="0.56"/>
    </linearGradient>
    <linearGradient id="guide-intelligence-function-accent" x1="0" y1="0" x2="1" y2="0">
      <stop offset="0%" stop-color="#00c4c4" stop-opacity="0.15"/>
      <stop offset="45%" stop-color="#00c4c4" stop-opacity="1"/>
      <stop offset="100%" stop-color="#6ee7b7" stop-opacity="0.28"/>
    </linearGradient>
    <filter id="guide-intelligence-function-soft-glow" x="-40%" y="-40%" width="180%" height="180%">
      <feGaussianBlur stdDeviation="6" result="blur"/>
      <feMerge>
        <feMergeNode in="blur"/>
        <feMergeNode in="SourceGraphic"/>
      </feMerge>
    </filter>
    <pattern id="guide-intelligence-function-grid" width="58" height="58" patternUnits="userSpaceOnUse">
      <path d="M 58 0 L 0 0 0 58" fill="none" stroke="#ffffff" stroke-opacity="0.055" stroke-width="1"/>
    </pattern>
    <pattern id="guide-intelligence-function-dots" width="34" height="34" patternUnits="userSpaceOnUse">
      <circle cx="2" cy="2" r="1.4" fill="#00c4c4" fill-opacity="0.28"/>
    </pattern>
  </defs>
  <rect width="1570" height="1000" fill="#08111f"/>
  <rect width="1570" height="1000" fill="url(#guide-intelligence-function-glow)"/>
  <rect width="1570" height="1000" fill="url(#guide-intelligence-function-grid)" opacity="0.58"/>
  <path d="M-80 690 C 220 540, 342 770, 610 612 S 1090 505, 1650 340" fill="none" stroke="#00c4c4" stroke-opacity="0.14" stroke-width="2"/>
  <path d="M-60 760 C 260 575, 410 775, 720 630 S 1110 665, 1630 475" fill="none" stroke="#6ee7b7" stroke-opacity="0.1" stroke-width="2"/>
  <path d="M-60 335 C 270 520, 510 235, 780 400 S 1180 545, 1640 285" fill="none" stroke="#00c4c4" stroke-opacity="0.1" stroke-width="2"/>
  
  <g font-family="Montserrat, Inter, Arial, sans-serif">
    <text x="70" y="86" fill="#00c4c4" font-size="24" font-weight="800" letter-spacing="9">OPERATING SYSTEM</text>
    <text x="70" y="148" fill="#f8fafc" font-size="54" font-weight="800" letter-spacing="-1">Building a Procurement Intelligence Function</text>
    <line x1="70" y1="188" x2="1500" y2="188" stroke="#00c4c4" stroke-opacity="0.35"/>
    
    
      <g>
        <rect x="170" y="280" width="820" height="72" rx="20" fill="#0b1d31" fill-opacity="0.74" stroke="#00c4c4" stroke-opacity="0.55"/>
        <text x="205" y="324" fill="#00c4c4" font-size="22" font-weight="900">Data</text>
        <text x="350" y="324" fill="#dbeafe" font-size="20" font-weight="700">Notices, awards, budgets</text>
      </g>
      <g>
        <rect x="170" y="385" width="772" height="72" rx="20" fill="#0b1d31" fill-opacity="0.6799999999999999" stroke="#00c4c4" stroke-opacity="0.51"/>
        <text x="205" y="429" fill="#00c4c4" font-size="22" font-weight="900">Signals</text>
        <text x="350" y="429" fill="#dbeafe" font-size="20" font-weight="700">Cycles, renewals, policy</text>
      </g>
      <g>
        <rect x="170" y="490" width="724" height="72" rx="20" fill="#0b1d31" fill-opacity="0.62" stroke="#00c4c4" stroke-opacity="0.47000000000000003"/>
        <text x="205" y="534" fill="#00c4c4" font-size="22" font-weight="900">Scoring</text>
        <text x="350" y="534" fill="#dbeafe" font-size="20" font-weight="700">Fit, timing, competition</text>
      </g>
      <g>
        <rect x="170" y="595" width="676" height="72" rx="20" fill="#0b1d31" fill-opacity="0.56" stroke="#00c4c4" stroke-opacity="0.43000000000000005"/>
        <text x="205" y="639" fill="#00c4c4" font-size="22" font-weight="900">Workflow</text>
        <text x="350" y="639" fill="#dbeafe" font-size="20" font-weight="700">Account and bid actions</text>
      </g>
      <g>
        <rect x="170" y="700" width="628" height="72" rx="20" fill="#0b1d31" fill-opacity="0.5" stroke="#00c4c4" stroke-opacity="0.39"/>
        <text x="205" y="744" fill="#00c4c4" font-size="22" font-weight="900">Learning</text>
        <text x="350" y="744" fill="#dbeafe" font-size="20" font-weight="700">Outcomes improve models</text>
      </g>
    <g>
      <path d="M900 515 C1010 515, 1010 370, 1130 370" fill="none" stroke="#00c4c4" stroke-width="5" stroke-opacity="0.8"/>
      <path d="M900 515 C1010 515, 1010 650, 1130 650" fill="none" stroke="#6ee7b7" stroke-width="5" stroke-opacity="0.55"/>
      <circle cx="915" cy="515" r="14" fill="#00c4c4" filter="url(#guide-intelligence-function-soft-glow)"/>
    </g>
    <rect x="1130" y="300" width="300" height="150" rx="28" fill="#06222f" fill-opacity="0.78" stroke="#00c4c4" stroke-opacity="0.65"/>
    <text x="1170" y="365" fill="#00c4c4" font-size="22" font-weight="900">ACCOUNT FOCUS</text>
    <text x="1170" y="405" fill="#f8fafc" font-size="26" font-weight="900">Prepare earlier</text>
    <rect x="1130" y="580" width="300" height="150" rx="28" fill="#111827" fill-opacity="0.78" stroke="#6ee7b7" stroke-opacity="0.52"/>
    <text x="1170" y="645" fill="#6ee7b7" font-size="22" font-weight="900">BID DECISION</text>
    <text x="1170" y="685" fill="#f8fafc" font-size="26" font-weight="900">Prioritize effort</text>
    <circle cx="775" cy="835" r="30" fill="#0b1d31" stroke="#00c4c4" stroke-width="2.5" stroke-opacity="0.82"/>
    <path d="M760 835h30 M775 820v30" stroke="#00c4c4" stroke-width="3"/>
    <text x="825" y="844" fill="#dbeafe" font-size="21" font-weight="800">Repeatable intelligence routine</text>
    
  </g>
</svg>
